# xmcd
#
# Track frame offsets:
#	150
#	9500
#	25285
#	40960
#	57308
#	81038
#	87695
#	96948
#	109678
#	123273
#	140793
#	153010
#	168578
#	178388
#	189615
#	208223
#
# Disc length: 3030 seconds
#
# Revision: 1
# Processed by: cddbd v1.5.1PL0 Copyright (c) Steve Scherf et al.
# Submitted via: CDex 1.50Beta5
#
DISCID=e20bd410
DTITLE=CAROL TRIBUTE - CAROL TRIBUTE
DYEAR=1900
DGENRE=Rock
TTITLE0=ファンキー・モンキー・ベイビー/THE COLTS
TTITLE1=ミスター・ギブソン/VooDoo Hawaiians
TTITLE2=ルイジアンナ/NEW ROTE’KA
TTITLE3=0時5分の最終列車/EEL ALE BREWER
TTITLE4=甘い日々/ICE&BLIND HEADZ
TTITLE5=恋の救急車/OI-SKALL MATES
TTITLE6=憎いあの娘/小島
TTITLE7=ヘイ・タクシー/IN-HI
TTITLE8=最後の恋人/The SANYONS
TTITLE9=緊急電話/ALMIGHTY BOMB JACK
TTITLE10=ラスト・チャンス/AKIMA&Theピーズ
TTITLE11=カモン・ベイビー/LOW IQ 01
TTITLE12=GOOD OLD ROCK’N’ROLL/THE NEATBEATS
TTITLE13=涙のテディ・ボーイ/GELUGUGU
TTITLE14=ファンキー・モンキー・ベイビー(English version)/akiko
TTITLE15=二人だけ/Le Couple
EXTD=
EXTT0=
EXTT1=
EXTT2=
EXTT3=
EXTT4=
EXTT5=
EXTT6=
EXTT7=
EXTT8=
EXTT9=
EXTT10=
EXTT11=
EXTT12=
EXTT13=
EXTT14=
EXTT15=
PLAYORDER=
